<svg width="119" height="58" viewBox="0 0 119 58" fill="none" xmlns="http://www.w3.org/2000/svg">
<path d="M106.31 7.82645C105.586 7.82645 104.817 7.46108 104.094 7.36164C99.103 6.67505 94.1369 5.91359 89.1594 5.12755C81.0498 3.84692 72.8387 2.65293 64.6376 2.17376C57.5811 1.76146 50.4699 2.18889 43.4101 2.36868C32.4343 2.64819 19.5838 1.74027 10.6085 9.37832C5.16477 14.011 2.13561 21.4488 2.00378 28.5855C1.9225 32.9855 3.14959 36.9728 5.99964 40.3107C8.43389 43.1616 11.7967 45.0834 15.0623 46.7805C20.6567 49.688 26.5843 51.2824 32.715 52.5232C39.3808 53.8723 46.0731 54.9359 52.8642 55.372C68.2239 56.3585 84.6571 56.7766 99.4629 51.9834C105.741 49.9511 113.685 46.6344 116.089 39.7334C117.384 36.0146 117.051 31.6989 116.591 27.8508C116.143 24.1002 115.257 19.9563 112.817 16.9802C111.357 15.1992 109.338 14.142 107.263 13.2692C101.525 10.8561 95.1016 11.0156 89.0264 10.3904" stroke="#F29A2E" stroke-width="3" stroke-linecap="round"/>
</svg>
